<?xml version="1.0" standalone="no"?>
<!DOCTYPE svg PUBLIC "-//W3C//DTD SVG 20010904//EN"
 "http://www.w3.org/TR/2001/REC-SVG-20010904/DTD/svg10.dtd">
<svg version="1.0" xmlns="http://www.w3.org/2000/svg"
 width="700.000000pt" height="700.000000pt" viewBox="0 0 700.000000 700.000000"
 preserveAspectRatio="xMidYMid meet">
<metadata>
Created by potrace 1.14, written by Peter Selinger 2001-2017
</metadata>
<g transform="translate(0.000000,700.000000) scale(0.100000,-0.100000)"
fill="#000000" stroke="none">
<path d="M5210 4214 c-49 -21 -98 -61 -115 -94 -24 -47 -44 -138 -50 -228 -7
-94 -28 -160 -81 -248 -57 -95 -99 -132 -177 -156 -56 -17 -84 -19 -155 -14
-48 3 -98 7 -112 9 -14 3 -45 8 -70 11 -25 4 -63 12 -85 18 -22 5 -47 12 -56
13 -9 2 -36 10 -60 18 -24 8 -64 20 -88 27 -82 22 -429 168 -664 279 -60 28
-111 51 -113 51 -3 0 -24 9 -47 19 -23 11 -109 42 -192 71 -395 137 -429 144
-655 145 -190 0 -253 -6 -383 -39 -265 -67 -431 -187 -582 -421 -105 -161
-145 -285 -150 -461 -5 -182 28 -290 103 -338 145 -91 290 -102 377 -28 54 45
89 115 99 192 4 41 65 193 102 255 31 54 93 107 164 143 52 26 62 27 195 26
107 0 163 -6 235 -23 94 -21 246 -68 265 -80 6 -4 37 -17 70 -30 33 -12 69
-26 80 -31 11 -5 63 -25 115 -45 52 -20 115 -45 140 -55 117 -49 572 -230 625
-248 97 -33 193 -59 300 -81 55 -12 114 -24 130 -27 17 -3 95 -8 175 -10 290
-7 503 56 724 214 114 82 197 194 262 353 64 157 88 289 88 484 0 115 -2 135
-22 172 -32 62 -70 96 -147 134 -57 28 -81 34 -140 35 -43 1 -85 -4 -105 -12z"/>
</g>
</svg>
