<?xml version="1.0" encoding="UTF-8"?><svg id="Calque_2" xmlns="http://www.w3.org/2000/svg" viewBox="0 0 23.08 32.33"><defs><style>.cls-1{fill:#F2A794;}.cls-1,.cls-2{stroke-width:0px;}.cls-2{fill:none;}</style></defs><g id="Calque_1-2"><path class="cls-1" d="m22.54,4.79l-1,10.03c-2.08.19-3.91.97-5.49,2.33-1.83,1.59-3.33,4.29-4.5,8.12-.33,1.17-.96,2.05-1.87,2.63-.92.59-1.88.87-2.88.87-1.17,0-2.12-.25-2.87-.75s-1.13-1.41-1.13-2.75c0-2.5.71-5.33,2.13-8.5,1.41-3.16,3.66-5.95,6.75-8.37,2.86-2.24,6.49-3.45,10.86-3.61Z"/><path class="cls-2" d="m0,0v32.33h23.08V0H0Zm21.54,14.82c-2.08.19-3.91.97-5.49,2.33-1.83,1.59-3.33,4.29-4.5,8.12-.33,1.17-.96,2.05-1.87,2.63-.92.59-1.88.87-2.88.87-1.17,0-2.12-.25-2.87-.75s-1.13-1.41-1.13-2.75c0-2.5.71-5.33,2.13-8.5,1.41-3.16,3.66-5.95,6.75-8.37,2.86-2.24,6.49-3.45,10.86-3.61l-1,10.03Z"/></g></svg>