<?xml version="1.0" standalone="no"?>
<!DOCTYPE svg PUBLIC "-//W3C//DTD SVG 20010904//EN"
 "http://www.w3.org/TR/2001/REC-SVG-20010904/DTD/svg10.dtd">
<svg version="1.0" xmlns="http://www.w3.org/2000/svg"
 width="808.000000pt" height="808.000000pt" viewBox="0 0 808.000000 808.000000"
 preserveAspectRatio="xMidYMid meet">
<metadata>
Created by potrace 1.14, written by Peter Selinger 2001-2017
</metadata>
<g transform="translate(0.000000,808.000000) scale(0.100000,-0.100000)"
fill="#000000" stroke="none">
<path d="M2220 7360 c-55 -10 -92 -34 -156 -100 -32 -34 -102 -105 -154 -160
-52 -54 -187 -193 -300 -310 -113 -117 -239 -247 -280 -290 -41 -42 -161 -167
-267 -276 -106 -110 -242 -251 -303 -314 -62 -63 -198 -204 -303 -313 -106
-110 -234 -242 -285 -295 -111 -115 -129 -144 -134 -212 -5 -93 70 -194 151
-203 17 -2 33 -6 36 -9 10 -10 96 12 124 31 15 11 117 112 226 226 110 114
256 265 325 336 69 70 200 206 292 301 91 95 204 212 250 259 46 48 166 173
268 279 102 105 230 238 285 295 55 56 131 135 169 174 69 72 88 82 103 57 4
-7 37 -46 73 -86 70 -78 70 -78 145 -165 28 -32 55 -64 62 -71 7 -6 43 -47 80
-90 37 -44 82 -95 99 -114 31 -35 73 -82 194 -220 36 -40 70 -78 75 -84 6 -6
39 -45 75 -86 36 -41 73 -84 83 -95 11 -11 38 -42 60 -68 23 -27 51 -59 62
-71 32 -36 135 -153 221 -251 68 -78 101 -115 149 -169 51 -57 100 -113 150
-171 130 -150 176 -193 218 -207 48 -16 64 -16 127 2 48 13 77 39 245 224 44
49 91 101 105 116 14 15 63 69 110 120 47 52 112 123 145 159 33 36 76 83 95
104 19 21 55 61 80 87 25 27 60 66 79 87 19 21 73 80 120 132 104 113 107 116
201 221 41 46 102 113 136 149 34 36 72 78 85 93 29 32 164 180 199 218 14 15
59 64 100 110 41 45 89 97 106 115 l31 33 31 -36 c32 -38 60 -69 152 -170 30
-33 84 -93 120 -133 36 -40 76 -85 90 -100 14 -15 34 -38 45 -51 32 -36 214
-238 261 -288 23 -25 57 -62 75 -84 19 -21 50 -56 69 -76 19 -21 62 -68 95
-106 33 -37 69 -77 80 -89 11 -11 54 -58 95 -105 41 -47 84 -94 95 -106 11
-11 49 -54 85 -94 36 -40 74 -83 85 -95 11 -11 58 -63 105 -115 46 -52 91
-102 100 -111 20 -21 144 -160 150 -169 7 -11 68 -41 93 -46 73 -15 146 7 194
58 43 46 63 120 50 188 -5 26 -35 74 -69 111 -18 21 -67 74 -108 120 -41 45
-83 91 -92 102 -22 25 -145 161 -178 197 -14 15 -52 58 -85 96 -33 37 -71 79
-85 94 -14 14 -56 62 -95 105 -38 42 -81 90 -95 105 -55 60 -165 183 -183 203
-10 12 -49 56 -87 97 -38 41 -77 84 -87 96 -10 12 -54 61 -98 109 -44 49 -89
99 -100 111 -11 12 -49 55 -85 95 -36 40 -70 77 -75 83 -6 6 -48 54 -95 106
-225 251 -276 306 -314 343 -90 85 -215 76 -306 -23 -19 -21 -66 -73 -105
-115 -38 -43 -81 -90 -95 -105 -14 -15 -47 -52 -75 -82 -27 -30 -88 -96 -135
-148 -47 -51 -96 -105 -110 -120 -14 -15 -61 -67 -105 -116 -44 -48 -103 -113
-131 -143 -28 -31 -62 -68 -75 -82 -90 -100 -181 -199 -219 -240 -25 -27 -72
-78 -105 -115 -33 -37 -71 -79 -85 -94 -14 -15 -59 -64 -100 -110 -41 -45 -94
-103 -118 -128 -23 -25 -66 -73 -96 -106 -30 -34 -82 -90 -115 -126 l-61 -65
-21 25 c-12 14 -47 54 -79 90 -32 36 -68 76 -80 90 -45 53 -58 68 -130 150
-41 47 -82 92 -90 100 -8 9 -35 40 -60 69 -25 29 -50 58 -56 64 -5 7 -32 37
-58 67 -27 30 -75 84 -107 120 -31 36 -66 74 -76 86 -10 12 -41 48 -70 80 -28
32 -60 69 -70 81 -11 12 -42 48 -71 80 -28 32 -59 67 -69 79 -10 12 -45 52
-78 89 -33 38 -82 94 -109 124 -26 31 -60 68 -75 83 -14 14 -36 39 -49 56 -12
16 -37 45 -55 64 -17 19 -57 63 -87 98 -59 67 -63 73 -154 175 -78 88 -141
118 -216 105z"/>
<path d="M2258 5285 c-2 -2 -19 -5 -38 -8 -74 -10 -66 -3 -600 -556 -36 -38
-168 -175 -295 -306 -126 -131 -257 -266 -290 -300 -86 -90 -498 -516 -647
-669 -342 -354 -329 -339 -343 -391 -11 -38 -7 -107 5 -119 6 -6 10 -17 10
-26 0 -32 82 -96 138 -107 83 -17 136 4 219 89 85 87 302 311 738 763 39 40
167 173 287 296 119 123 257 267 307 319 51 52 182 189 293 303 l202 208 23
-28 c14 -15 42 -47 63 -70 22 -24 38 -43 36 -43 -3 0 8 -12 22 -28 38 -39 126
-138 242 -272 36 -41 74 -85 85 -96 11 -11 39 -43 61 -70 23 -27 50 -58 60
-70 11 -12 46 -52 79 -89 33 -37 65 -73 70 -79 6 -6 48 -54 94 -106 46 -52
107 -122 136 -155 29 -33 73 -82 97 -109 23 -27 52 -60 63 -72 11 -12 43 -48
70 -80 28 -32 70 -81 95 -109 25 -27 75 -84 110 -125 36 -41 70 -80 75 -86 6
-6 35 -39 65 -74 88 -100 100 -113 133 -149 54 -57 123 -80 212 -68 11 1 26 7
34 12 24 17 131 125 221 225 47 51 96 105 110 120 14 15 59 65 100 110 41 45
80 88 85 94 6 6 37 40 70 76 33 36 99 108 147 160 47 52 95 104 105 116 10 12
59 65 108 119 50 53 101 109 114 124 13 14 40 44 60 66 20 22 81 90 136 150
55 61 104 115 110 121 33 36 192 210 205 224 8 9 53 59 100 110 47 51 94 103
105 116 11 13 24 24 29 24 5 0 23 -17 42 -38 18 -21 48 -55 66 -74 18 -20 62
-68 98 -108 35 -39 73 -82 85 -94 11 -12 49 -55 85 -96 36 -40 72 -80 80 -89
9 -9 54 -59 100 -111 47 -52 96 -106 110 -121 24 -25 148 -163 181 -200 27
-31 153 -171 174 -193 11 -12 54 -59 95 -106 41 -47 84 -94 95 -106 24 -25 86
-94 175 -194 36 -40 76 -85 89 -99 13 -14 58 -64 100 -110 42 -47 91 -101 109
-120 17 -19 32 -38 32 -41 0 -9 89 -64 108 -67 46 -7 71 -6 115 6 26 8 47 17
47 22 0 4 8 10 19 14 10 3 30 28 45 55 50 91 30 185 -57 275 -18 18 -63 68
-102 111 -67 76 -119 134 -196 219 -21 22 -51 56 -68 75 -18 19 -51 56 -74 81
-23 26 -71 79 -107 119 -36 40 -76 84 -90 100 -14 15 -54 60 -90 100 -36 40
-78 87 -93 103 -15 17 -51 57 -80 90 -29 33 -71 79 -94 104 -24 24 -43 46 -43
48 0 2 -15 18 -33 37 -18 18 -64 68 -102 112 -39 43 -85 95 -104 115 -18 20
-61 67 -95 105 -33 39 -72 82 -86 96 -14 14 -56 62 -95 106 -38 43 -74 84 -80
90 -5 6 -48 53 -95 105 -147 163 -174 183 -245 190 -75 7 -129 -21 -206 -105
-30 -33 -65 -71 -79 -86 -14 -15 -59 -64 -100 -110 -41 -46 -86 -95 -100 -110
-39 -42 -190 -207 -208 -228 -9 -11 -57 -63 -107 -117 -49 -54 -101 -110 -113
-124 -13 -14 -61 -66 -105 -115 -45 -49 -91 -99 -102 -112 -11 -12 -36 -39
-55 -60 -20 -22 -85 -93 -145 -159 -59 -66 -115 -127 -124 -136 -9 -9 -47 -51
-86 -94 -38 -42 -88 -97 -110 -120 -22 -24 -71 -78 -110 -121 -38 -42 -91
-100 -117 -128 l-48 -51 -21 25 c-12 14 -49 56 -83 94 -33 38 -69 78 -79 90
-10 12 -26 30 -35 41 -58 67 -170 194 -192 216 -14 15 -39 44 -57 66 -17 21
-49 57 -70 80 -21 22 -56 62 -78 88 -22 27 -51 60 -65 75 -30 33 -170 192
-217 247 -11 12 -42 48 -71 80 -28 32 -59 67 -69 79 -10 12 -47 54 -83 94 -36
40 -73 82 -83 94 -35 40 -122 139 -132 150 -5 6 -45 52 -89 101 -43 50 -95
108 -115 131 -20 22 -65 73 -100 113 -36 40 -78 79 -95 88 -33 17 -83 33 -88
28z"/>
<path d="M2218 3199 c-26 -4 -60 -16 -75 -27 -16 -11 -129 -125 -253 -253
-124 -128 -254 -263 -290 -299 -36 -37 -159 -165 -275 -285 -115 -120 -239
-248 -275 -285 -36 -37 -169 -174 -296 -306 -127 -131 -289 -299 -360 -372
-71 -74 -171 -177 -222 -230 -52 -54 -102 -114 -113 -135 -28 -54 -27 -125 3
-178 27 -49 85 -99 116 -102 12 -1 22 -4 22 -7 0 -11 73 -1 116 15 43 16 95
67 564 555 107 111 231 239 275 284 44 46 177 183 295 306 259 269 305 316
579 599 l214 220 26 -28 c75 -83 100 -111 97 -111 -2 0 15 -20 38 -44 22 -24
60 -65 83 -92 22 -27 49 -58 60 -69 10 -11 47 -54 83 -95 36 -41 67 -77 70
-80 3 -3 35 -39 70 -80 36 -41 67 -77 70 -80 3 -3 36 -41 75 -85 38 -44 81
-92 95 -106 14 -15 41 -46 60 -69 19 -23 49 -56 65 -74 17 -18 50 -57 75 -86
25 -29 54 -62 66 -74 21 -22 138 -155 170 -194 10 -13 30 -36 44 -51 14 -14
52 -58 85 -95 33 -38 65 -74 70 -80 26 -30 96 -109 150 -171 33 -38 75 -84 93
-103 17 -18 32 -37 32 -40 1 -11 73 -58 105 -68 44 -14 101 -7 152 19 16 9 65
55 109 103 43 48 93 102 111 121 17 19 62 68 100 110 37 42 88 96 111 122 24
25 58 62 75 82 18 20 70 78 117 129 47 51 96 105 110 120 14 15 61 67 105 115
88 97 87 95 200 219 44 49 94 103 110 121 17 18 59 65 95 104 36 40 81 89 100
110 19 21 64 70 100 110 36 40 81 90 100 110 56 59 197 213 222 244 29 33 38
34 60 5 9 -13 43 -51 75 -84 32 -34 79 -86 105 -116 26 -30 65 -74 88 -99 50
-53 62 -66 176 -194 103 -116 89 -101 181 -201 39 -44 80 -88 90 -100 15 -18
106 -118 200 -221 12 -13 49 -55 83 -93 34 -38 71 -80 83 -93 92 -100 185
-203 200 -221 18 -20 119 -134 162 -182 40 -44 181 -199 213 -233 17 -19 32
-38 32 -41 0 -12 93 -64 119 -67 120 -14 207 40 234 147 22 84 1 146 -78 226
-11 11 -48 52 -81 90 -34 38 -73 81 -85 95 -69 75 -186 205 -202 223 -10 12
-51 57 -90 100 -40 44 -80 88 -90 99 -10 12 -49 55 -87 97 -38 42 -78 86 -88
97 -46 54 -171 191 -204 225 -20 21 -34 38 -32 38 3 0 -10 15 -28 33 -18 19
-62 66 -98 107 -36 40 -76 85 -90 100 -14 15 -56 62 -95 106 -38 43 -77 85
-85 94 -8 9 -75 83 -149 165 -74 83 -142 157 -150 166 -9 9 -43 47 -76 85
-157 180 -211 209 -324 174 -45 -14 -95 -58 -196 -174 -27 -32 -63 -72 -80
-89 -16 -18 -70 -77 -120 -131 -49 -54 -101 -111 -115 -126 -14 -15 -56 -61
-92 -101 -36 -41 -84 -92 -105 -115 -32 -34 -144 -157 -228 -250 -120 -132
-198 -217 -237 -259 -25 -27 -68 -74 -95 -104 -26 -30 -59 -66 -73 -81 -14
-15 -63 -69 -110 -120 -47 -52 -96 -105 -109 -119 -13 -14 -52 -57 -86 -96
-35 -38 -91 -99 -124 -135 l-61 -65 -21 25 c-12 14 -49 56 -82 94 -92 103
-114 128 -137 156 -29 34 -139 158 -170 191 -14 15 -40 46 -59 69 -19 23 -46
54 -60 69 -14 14 -55 60 -91 101 -36 41 -69 80 -75 86 -5 6 -35 39 -65 74 -30
35 -60 68 -65 74 -6 6 -39 45 -75 86 -36 41 -67 77 -70 80 -3 3 -37 41 -75 85
-39 44 -72 82 -75 85 -3 3 -34 39 -70 80 -36 41 -81 93 -101 115 -45 50 -195
221 -263 299 -160 186 -210 219 -308 205z"/>
</g>
</svg>
