<svg width="27" height="42" viewBox="0 0 27 42" fill="none" xmlns="http://www.w3.org/2000/svg">
<g clip-path="url(#clip0_1_133)">
<path d="M17.077 41.5728C19.3596 40.9404 21.4041 39.7134 23.0335 38.0762C25.4794 35.6187 26.9966 32.228 26.9966 28.4956V13.5625C26.9966 9.83008 25.4794 6.43945 23.0335 3.98193C20.5876 1.52441 17.2131 0 13.4983 0C9.78695 0 6.40897 1.52441 3.96308 3.98193C1.5172 6.43945 0 9.8335 0 13.5625V28.4922C0 32.2246 1.5172 35.6152 3.96308 38.0728C5.86468 39.9834 8.32418 41.3301 11.0694 41.8359C12.7295 42.1436 15.5462 41.9966 17.077 41.5728ZM13.3452 31.4658C14.757 31.4658 15.9136 30.3037 15.9136 28.8853V26.2261C15.9136 24.8076 14.757 23.6455 13.3452 23.6455C11.9335 23.6455 10.7769 24.8076 10.7769 26.2261V28.8853C10.7769 30.3037 11.9301 31.4658 13.3452 31.4658ZM20.7781 35.8101C18.9105 37.6865 16.332 38.8555 13.4983 38.8555C10.6646 38.8555 8.08945 37.6899 6.21847 35.8101C4.35089 33.9336 3.18748 31.3428 3.18748 28.4956V13.5625C3.18748 10.7153 4.34749 8.12793 6.21847 6.24805C8.08605 4.37158 10.6646 3.20264 13.4983 3.20264C16.332 3.20264 18.9071 4.36816 20.7781 6.24805C22.6457 8.12451 23.8091 10.7153 23.8091 13.5625V28.4922C23.8091 31.3428 22.6491 33.9302 20.7781 35.8101Z" fill="#F6805B"/>
</g>
<defs>
<clipPath id="clip0_1_133">
<rect width="27" height="42" fill="white"/>
</clipPath>
</defs>
</svg>
